# xmcd CD database file
#
# Track frame offsets:
#	150
#	12729
#	26755
#	38441
#	52869
#	64819
#	79180
#	91405
#	104094
#	117303
#	129808
#
# Disc length: 1915 seconds
#
# Revision: 0
# Processed by: cddbd v1.4PL0 Copyright (c) Steve Scherf et al.
# Submitted via: CDex 1.40Beta6
#
DISCID=8a07790b
DTITLE=Stevie Vallance - Always (A Salute to Patsy Cline)
DYEAR=1999
DGENRE=Country
TTITLE0=Seven Lonely Days
TTITLE1=Just A Closer Walk With Thee
TTITLE2=Walkin' After Midnight
TTITLE3=She's Got You
TTITLE4=Always
TTITLE5=I Fall To Pieces
TTITLE6=Blue Moon Of Kentucky
TTITLE7=Your Cheatin' Heart
TTITLE8=Sweet Dreams
TTITLE9=There He Goes
TTITLE10=Crazy
EXTD=
EXTT0=
EXTT1=
EXTT2=
EXTT3=
EXTT4=
EXTT5=
EXTT6=
EXTT7=
EXTT8=
EXTT9=
EXTT10=
PLAYORDER=
